{"scene":0,"scenes":[{"nodes":[0]}],"asset":{"version":"2.0","generator":"https://github.com/mikedh/trimesh"},"accessors":[{"componentType":5125,"type":"SCALAR","bufferView":0,"count":36,"max":[7],"min":[0]},{"componentType":5126,"type":"VEC3","byteOffset":0,"bufferView":1,"count":8,"max":[0.65,0.36,2.625],"min":[-0.65,-0.36,1.175]},{"componentType":5126,"type":"VEC3","byteOffset":0,"bufferView":2,"count":8,"max":[-0.11,0.29,0.975],"min":[-0.59,-0.29,-0.075]},{"componentType":5126,"type":"VEC3","byteOffset":0,"bufferView":3,"count":8,"max":[0.59,0.29,0.975],"min":[0.11,-0.29,-0.075]},{"componentType":5126,"type":"VEC3","byteOffset":0,"bufferView":4,"count":8,"max":[-0.05,0.37,-0.12],"min":[-0.65,-0.53,-0.44]},{"componentType":5126,"type":"VEC3","byteOffset":0,"bufferView":5,"count":8,"max":[0.65,0.37,-0.12],"min":[0.05,-0.53,-0.44]},{"componentType":5126,"type":"VEC3","byteOffset":0,"bufferView":6,"count":8,"max":[-0.755,0.275,2.525],"min":[-1.005,-0.275,1.475]},{"componentType":5126,"type":"VEC3","byteOffset":0,"bufferView":7,"count":8,"max":[1.005,0.275,2.525],"min":[0.755,-0.275,1.475]},{"componentType":5125,"type":"SCALAR","bufferView":8,"count":432,"max":[73],"min":[0]},{"componentType":5126,"type":"VEC3","byteOffset":0,"bufferView":9,"count":74,"max":[0.53621,0.53621,3.6],"min":[-0.53621,-0.53621,2.5]},{"componentType":5126,"type":"VEC3","byteOffset":0,"bufferView":10,"count":74,"max":[0.662951,0.662951,3.822],"min":[-0.662951,-0.662951,3.278]},{"componentType":5126,"type":"VEC3","byteOffset":0,"bufferView":11,"count":8,"max":[0.65,0.45,3.43],"min":[-0.65,-0.45,3.31]},{"componentType":5126,"type":"VEC3","byteOffset":0,"bufferView":12,"count":74,"max":[0.233983,-0.33961,3.012],"min":[-0.233983,-0.62039,2.628]},{"componentType":5126,"type":"VEC3","byteOffset":0,"bufferView":13,"count":74,"max":[0.107242,-0.432758,3.13],"min":[-0.107242,-0.647242,2.91]},{"componentType":5126,"type":"VEC3","byteOffset":0,"bufferView":14,"count":8,"max":[-0.285,0.38,2.625],"min":[-0.415,-0.38,1.275]},{"componentType":5126,"type":"VEC3","byteOffset":0,"bufferView":15,"count":8,"max":[0.415,0.38,2.625],"min":[0.285,-0.38,1.275]},{"componentType":5126,"type":"VEC3","byteOffset":0,"bufferView":16,"count":8,"max":[0.125,-0.36,1.355],"min":[-0.125,-0.48,1.105]}],"meshes":[{"name":"body","primitives":[{"attributes":{"POSITION":1},"indices":0,"mode":4,"material":0}]},{"name":"legL","primitives":[{"attributes":{"POSITION":2},"indices":0,"mode":4,"material":1}]},{"name":"legR","primitives":[{"attributes":{"POSITION":3},"indices":0,"mode":4,"material":1}]},{"name":"bootL","primitives":[{"attributes":{"POSITION":4},"indices":0,"mode":4,"material":2}]},{"name":"bootR","primitives":[{"attributes":{"POSITION":5},"indices":0,"mode":4,"material":2}]},{"name":"armL","primitives":[{"attributes":{"POSITION":6},"indices":0,"mode":4,"material":0}]},{"name":"armR","primitives":[{"attributes":{"POSITION":7},"indices":0,"mode":4,"material":0}]},{"name":"head","primitives":[{"attributes":{"POSITION":9},"indices":8,"mode":4,"material":3}]},{"name":"helmet","primitives":[{"attributes":{"POSITION":10},"indices":8,"mode":4,"material":4}]},{"name":"helmet_brim","primitives":[{"attributes":{"POSITION":11},"indices":0,"mode":4,"material":4}]},{"name":"beard","primitives":[{"attributes":{"POSITION":12},"indices":8,"mode":4,"material":5}]},{"name":"nose","primitives":[{"attributes":{"POSITION":13},"indices":8,"mode":4,"material":3}]},{"name":"strap","primitives":[{"attributes":{"POSITION":14},"indices":0,"mode":4,"material":4}]},{"name":"strap_1","primitives":[{"attributes":{"POSITION":15},"indices":0,"mode":4,"material":4}]},{"name":"buckle","primitives":[{"attributes":{"POSITION":16},"indices":0,"mode":4,"material":6}]}],"materials":[{"pbrMetallicRoughness":{"baseColorFactor":[0.102,0.18,0.251,1],"roughnessFactor":0.8}},{"pbrMetallicRoughness":{"baseColorFactor":[0.078,0.09,0.11,1],"roughnessFactor":0.8}},{"pbrMetallicRoughness":{"baseColorFactor":[0.031,0.031,0.035,1],"roughnessFactor":0.8}},{"pbrMetallicRoughness":{"baseColorFactor":[0.549,0.298,0.18,1],"roughnessFactor":0.8}},{"pbrMetallicRoughness":{"baseColorFactor":[0.949,0.62,0.051,1],"roughnessFactor":0.8}},{"pbrMetallicRoughness":{"baseColorFactor":[0.071,0.043,0.024,1],"roughnessFactor":0.8}},{"pbrMetallicRoughness":{"baseColorFactor":[0.349,0.38,0.42,1],"roughnessFactor":0.8}}],"nodes":[{"name":"Hanys","children":[1,2,3,4,5,6,7,8,9,10,11,12,13,14,15]},{"name":"body","mesh":0},{"name":"legL","mesh":1},{"name":"legR","mesh":2},{"name":"bootL","mesh":3},{"name":"bootR","mesh":4},{"name":"armL","mesh":5},{"name":"armR","mesh":6},{"name":"head","mesh":7},{"name":"helmet","mesh":8},{"name":"helmet_brim","mesh":9},{"name":"beard","mesh":10},{"name":"nose","mesh":11},{"name":"strap","mesh":12},{"name":"strap_1","mesh":13},{"name":"buckle","mesh":14}],"buffers":[{"uri":"data:application/octet-stream;base64,","byteLength":144},{"uri":"data:application/octet-stream;base64,","byteLength":96},{"uri":"data:application/octet-stream;base64,","byteLength":96},{"uri":"data:application/octet-stream;base64,","byteLength":96},{"uri":"data:application/octet-stream;base64,","byteLength":96},{"uri":"data:application/octet-stream;base64,","byteLength":96},{"uri":"data:application/octet-stream;base64,","byteLength":96},{"uri":"data:application/octet-stream;base64,","byteLength":96},{"uri":"data:application/octet-stream;base64,","byteLength":1728},{"uri":"data:application/octet-stream;base64,","byteLength":888},{"uri":"data:application/octet-stream;base64,","byteLength":888},{"uri":"data:application/octet-stream;base64,","byteLength":96},{"uri":"data:application/octet-stream;base64,","byteLength":888},{"uri":"data:application/octet-stream;base64,","byteLength":888},{"uri":"data:application/octet-stream;base64,","byteLength":96},{"uri":"data:application/octet-stream;base64,","byteLength":96},{"uri":"data:application/octet-stream;base64,","byteLength":96}],"bufferViews":[{"buffer":0,"byteOffset":0,"byteLength":144},{"buffer":1,"byteOffset":0,"byteLength":96},{"buffer":2,"byteOffset":0,"byteLength":96},{"buffer":3,"byteOffset":0,"byteLength":96},{"buffer":4,"byteOffset":0,"byteLength":96},{"buffer":5,"byteOffset":0,"byteLength":96},{"buffer":6,"byteOffset":0,"byteLength":96},{"buffer":7,"byteOffset":0,"byteLength":96},{"buffer":8,"byteOffset":0,"byteLength":1728},{"buffer":9,"byteOffset":0,"byteLength":888},{"buffer":10,"byteOffset":0,"byteLength":888},{"buffer":11,"byteOffset":0,"byteLength":96},{"buffer":12,"byteOffset":0,"byteLength":888},{"buffer":13,"byteOffset":0,"byteLength":888},{"buffer":14,"byteOffset":0,"byteLength":96},{"buffer":15,"byteOffset":0,"byteLength":96},{"buffer":16,"byteOffset":0,"byteLength":96}]}